<svg width="118" height="125" viewBox="0 0 118 125" fill="none" xmlns="http://www.w3.org/2000/svg">
<path d="M35.118 11.6419C35.118 5.21459 39.0505 0 43.8975 0H73.1625C78.0095 0 81.942 5.21459 81.942 11.6419V124.18H67.3095V104.777C67.3095 98.3496 63.377 93.135 58.53 93.135C53.683 93.135 49.7505 98.3496 49.7505 104.777V124.18H35.118V11.6419ZM8.7795 23.2838H29.265V124.18H8.7795C3.93248 124.18 0 118.965 0 112.538V77.6125H14.6325C16.2421 77.6125 17.559 75.8662 17.559 73.7319C17.559 71.5975 16.2421 69.8512 14.6325 69.8512H0V54.3288H14.6325C16.2421 54.3288 17.559 52.5825 17.559 50.4481C17.559 48.3138 16.2421 46.5675 14.6325 46.5675H0V34.9256C0 28.4983 3.93248 23.2838 8.7795 23.2838ZM108.28 23.2838C113.128 23.2838 117.06 28.4983 117.06 34.9256V46.5675H102.427C100.818 46.5675 99.501 48.3138 99.501 50.4481C99.501 52.5825 100.818 54.3288 102.427 54.3288H117.06V69.8512H102.427C100.818 69.8512 99.501 71.5975 99.501 73.7319C99.501 75.8662 100.818 77.6125 102.427 77.6125H117.06V112.538C117.06 118.965 113.128 124.18 108.28 124.18H87.795V23.2838H108.28ZM57.0667 15.5225C55.4572 15.5225 54.1402 17.2688 54.1402 19.4031V25.2241H49.7505C48.1409 25.2241 46.824 26.9703 46.824 29.1047V32.9853C46.824 35.1197 48.1409 36.8659 49.7505 36.8659H54.1402V42.6869C54.1402 44.8212 55.4572 46.5675 57.0667 46.5675H59.9932C61.6028 46.5675 62.9197 44.8212 62.9197 42.6869V36.8659H67.3095C68.9191 36.8659 70.236 35.1197 70.236 32.9853V29.1047C70.236 26.9703 68.9191 25.2241 67.3095 25.2241H62.9197V19.4031C62.9197 17.2688 61.6028 15.5225 59.9932 15.5225H57.0667Z" fill="#D4D4D4"/>
<path d="M63.0595 52.375H65.4978C68.6491 57.8357 74.5523 61.5 81.3112 61.5C82.8797 61.5 84.4197 61.3004 85.8741 60.9297V61.5V66.0625V93.4375C85.8741 95.9611 83.8351 98 81.3112 98C78.7873 98 76.7483 95.9611 76.7483 93.4375V73.3625L57.3558 88.875H65.3409C67.8648 88.875 69.9039 90.9139 69.9039 93.4375C69.9039 95.9611 67.8648 98 65.3409 98H44.8077C37.2503 98 31.1189 91.8691 31.1189 84.3125V52.4463C31.1189 50.1508 29.4078 48.1975 27.1263 47.9123L25.9999 47.7697C23.5045 47.4561 21.7221 45.1748 22.0358 42.6797C22.3495 40.1846 24.631 38.4023 27.1263 38.716L28.2528 38.8586C35.0972 39.7141 40.2448 45.5312 40.2448 52.4463V64.6082C45.1499 57.2369 53.5343 52.375 63.0595 52.375ZM85.8741 56.1533C84.4482 56.6523 82.9082 56.9375 81.3112 56.9375C77.2616 56.9375 73.6112 55.1695 71.1016 52.375C70.574 51.7904 70.1035 51.1631 69.69 50.493C68.3781 48.3828 67.6224 45.902 67.6224 43.25V29.5625V26.7109V26.5256C67.6224 25.6844 68.2926 25.0143 69.1339 25H69.1624C69.6329 25 70.075 25.2281 70.3602 25.5988V25.6131L72.1853 28.0369L76.0638 33.2125L76.7483 34.125H85.8741L86.5586 33.2125L90.4371 28.0369L92.2622 25.6131V25.5988C92.5474 25.2281 92.9895 25 93.46 25H93.4885C94.3298 25.0143 95 25.6844 95 26.5256V26.7109V29.5625V43.25C95 45.7166 94.3441 48.0406 93.2034 50.0367C91.5921 52.8598 88.9826 55.0555 85.8741 56.1533ZM79.0297 43.25C79.0297 42.645 78.7894 42.0647 78.3615 41.6369C77.9336 41.2091 77.3533 40.9688 76.7483 40.9688C76.1432 40.9688 75.5629 41.2091 75.135 41.6369C74.7072 42.0647 74.4668 42.645 74.4668 43.25C74.4668 43.855 74.7072 44.4353 75.135 44.8631C75.5629 45.2909 76.1432 45.5312 76.7483 45.5312C77.3533 45.5312 77.9336 45.2909 78.3615 44.8631C78.7894 44.4353 79.0297 43.855 79.0297 43.25ZM85.8741 45.5312C86.4792 45.5312 87.0595 45.2909 87.4874 44.8631C87.9152 44.4353 88.1556 43.855 88.1556 43.25C88.1556 42.645 87.9152 42.0647 87.4874 41.6369C87.0595 41.2091 86.4792 40.9688 85.8741 40.9688C85.2691 40.9688 84.6887 41.2091 84.2609 41.6369C83.833 42.0647 83.5927 42.645 83.5927 43.25C83.5927 43.855 83.833 44.4353 84.2609 44.8631C84.6887 45.2909 85.2691 45.5312 85.8741 45.5312Z" fill="#0C8CE9"/>
</svg>
