<svg width="169" height="176" viewBox="0 0 169 176" fill="none" xmlns="http://www.w3.org/2000/svg">
<path d="M23.3799 131.018C22.9566 130.036 22.0622 129.411 21.0799 129.411C20.0976 129.411 19.2111 130.036 18.7799 131.018L13.6448 142.829L2.17673 144.721C1.2184 144.882 0.419786 145.632 0.1243 146.658C-0.171187 147.685 0.0683965 148.819 0.755203 149.577L9.07674 158.781L7.11216 171.788C6.95243 172.86 7.35174 173.949 8.14237 174.583C8.93299 175.216 9.97917 175.297 10.8417 174.788L21.0879 168.673L31.3341 174.788C32.1966 175.297 33.2427 175.225 34.0334 174.583C34.824 173.94 35.2233 172.86 35.0636 171.788L33.091 158.781L41.4125 149.577C42.0994 148.819 42.3469 147.685 42.0434 146.658C41.74 145.632 40.9494 144.882 39.991 144.721L28.515 142.829L23.3799 131.018Z" fill="#D5D5D5"/>
<path d="M46.4874 1.60689C46.0642 0.624903 45.1697 0 44.1874 0C43.2051 0 42.3187 0.624903 41.8874 1.60689L36.7523 13.4176L25.2843 15.3101C24.3259 15.4708 23.5273 16.2207 23.2318 17.2473C22.9364 18.274 23.1759 19.4077 23.8627 20.1665L32.1843 29.3705L30.2197 42.3774C30.06 43.4486 30.4593 44.5378 31.2499 45.1716C32.0405 45.8054 33.0867 45.8858 33.9492 45.3769L44.1954 39.2618L54.4416 45.3769C55.3041 45.8858 56.3503 45.8143 57.1409 45.1716C57.9315 44.5288 58.3308 43.4486 58.1711 42.3774L56.1986 29.3705L64.5201 20.1665C65.2069 19.4077 65.4545 18.274 65.151 17.2473C64.8475 16.2207 64.0569 15.4708 63.0986 15.3101L51.6225 13.4176L46.4874 1.60689Z" fill="#D5D5D5"/>
<path d="M149.894 85.3056C149.47 84.3236 148.576 83.6987 147.594 83.6987C146.611 83.6987 145.725 84.3236 145.294 85.3056L140.158 97.1162L128.69 99.0088C127.732 99.1695 126.933 99.9194 126.638 100.946C126.342 101.973 126.582 103.106 127.269 103.865L135.59 113.069L133.626 126.076C133.466 127.147 133.865 128.236 134.656 128.87C135.447 129.504 136.493 129.584 137.355 129.076L147.602 122.96L157.848 129.076C158.71 129.584 159.756 129.513 160.547 128.87C161.338 128.227 161.737 127.147 161.577 126.076L159.605 113.069L167.926 103.865C168.613 103.106 168.861 101.973 168.557 100.946C168.254 99.9194 167.463 99.1695 166.505 99.0088L155.029 97.1162L149.894 85.3056Z" fill="#D5D5D5"/>
<path d="M76.8201 34.4827C75.901 34.0193 74.9163 33.7755 73.8879 33.7755C72.8594 33.7755 71.8747 34.0193 70.9557 34.4827L29.7516 53.9685C24.9375 56.2366 21.3488 61.5287 21.3707 67.9183C21.4801 92.1109 30.408 136.375 68.111 156.495C71.7653 158.446 76.0104 158.446 79.6648 156.495C117.368 136.375 126.296 92.1109 126.405 67.9183C126.427 61.5287 122.838 56.2366 118.024 53.9685L76.8201 34.4827ZM53.0779 103.573C54.1283 103.866 55.2443 104.012 56.3821 104.012C64.1065 104.012 70.3867 97.0129 70.3867 88.404V72.7958H80.0586C82.7064 72.7958 85.1353 74.4542 86.3169 77.1125L87.8924 80.5999H101.897C103.823 80.5999 105.398 82.3558 105.398 84.5019V92.306C105.398 103.085 97.5644 111.816 87.8924 111.816H77.389V124.181C77.389 125.961 76.098 127.424 74.4787 127.424C74.0848 127.424 73.6909 127.327 73.3408 127.156L51.7431 116.84C50.2989 116.157 49.3799 114.572 49.3799 112.841C49.3799 112.158 49.5112 111.499 49.7956 110.889L53.0779 103.573ZM52.881 72.7958H61.6339H63.3844V80.5999V88.404C63.3844 92.7206 60.2553 96.2081 56.3821 96.2081C52.509 96.2081 49.3799 92.7206 49.3799 88.404V76.6979C49.3799 74.5518 50.9554 72.7958 52.881 72.7958ZM80.8902 84.5019C80.8902 83.4671 80.5213 82.4746 79.8647 81.7428C79.2081 81.011 78.3176 80.5999 77.389 80.5999C76.4605 80.5999 75.5699 81.011 74.9133 81.7428C74.2567 82.4746 73.8879 83.4671 73.8879 84.5019C73.8879 85.5368 74.2567 86.5293 74.9133 87.2611C75.5699 87.9929 76.4605 88.404 77.389 88.404C78.3176 88.404 79.2081 87.9929 79.8647 87.2611C80.5213 86.5293 80.8902 85.5368 80.8902 84.5019Z" fill="#0C8CE9"/>
</svg>
