<svg width="118" height="125" viewBox="0 0 118 125" fill="none" xmlns="http://www.w3.org/2000/svg">
<path d="M10.8829 73.243L52.1969 121.089C53.9116 123.074 56.1751 124.18 58.53 124.18C60.8849 124.18 63.1484 123.074 64.8631 121.089L106.177 73.243C113.128 65.2167 117.06 53.9572 117.06 42.1873V40.5423C117.06 20.7177 105.514 3.81435 89.7612 0.552793C79.3356 -1.60267 68.727 2.62317 61.2736 11.869L58.53 15.2723L55.7864 11.869C48.333 2.62317 37.7244 -1.60267 27.2988 0.552793C11.546 3.81435 0 20.7177 0 40.5423V42.1873C0 53.9572 3.93248 65.2167 10.8829 73.243Z" fill="#D4D4D4"/>
<path d="M29.6235 35.8214C29.6235 33.1576 27.4702 31 24.8117 31C22.1533 31 20 33.1576 20 35.8214V42.5714V50.2857V62.5201C20 65.5938 21.215 68.5348 23.3803 70.7045L35.3976 82.746C36.8411 84.1924 38.8019 85 40.8469 85H48.8705C52.0583 85 54.6446 82.4085 54.6446 79.2143V69.704C54.6446 66.1241 53.2251 62.6888 50.699 60.1576L47.6555 57.108L45.8271 55.2759L41.9777 51.4187C40.474 49.9121 38.032 49.9121 36.5284 51.4187C35.0247 52.9254 35.0247 55.3723 36.5284 56.879L40.3778 60.7362L42.2062 62.5683C43.5294 63.8942 43.3129 66.0879 41.7611 67.1246C40.5943 67.908 39.0305 67.7513 38.032 66.7509L31.873 60.5915C30.4295 59.1451 29.6235 57.1804 29.6235 55.1313V50.2857V40.6429V35.8214ZM87.3645 35.8214V40.6429V50.2857V55.1313C87.3645 57.1804 86.5585 59.1451 85.115 60.5915L78.968 66.7509C77.9695 67.7513 76.4057 67.908 75.2389 67.1246C73.6871 66.0879 73.4706 63.8821 74.7938 62.5683L76.6222 60.7362L80.4716 56.879C81.9753 55.3723 81.9753 52.9254 80.4716 51.4187C78.968 49.9121 76.526 49.9121 75.0223 51.4187L71.1729 55.2759L69.3445 57.108L66.301 60.1576C63.7749 62.6888 62.3554 66.1241 62.3554 69.704V79.2143C62.3554 82.4085 64.9417 85 68.1295 85H76.1531C78.1981 85 80.1589 84.1924 81.6024 82.746L93.6198 70.7045C95.785 68.5348 97 65.5938 97 62.5201V50.2857V42.5714V35.8214C97 33.1576 94.8467 31 92.1882 31C89.5298 31 87.3765 33.1576 87.3765 35.8214H87.3645Z" fill="#0C8CE9"/>
</svg>
